<?xml version="1.0" standalone="no"?><!DOCTYPE svg PUBLIC "-//W3C//DTD SVG 1.1//EN" "http://www.w3.org/Graphics/SVG/1.1/DTD/svg11.dtd"><svg t="1601546011562" class="icon" viewBox="0 0 1024 1024" version="1.1" xmlns="http://www.w3.org/2000/svg" p-id="623" xmlns:xlink="http://www.w3.org/1999/xlink" width="200" height="200"><defs><style type="text/css"></style></defs><path d="M810.666667 384h-85.333334v-64c0-117.824-95.509333-213.333333-213.333333-213.333333S298.666667 202.176 298.666667 320v64h-85.333334a85.333333 85.333333 0 0 0-85.333333 85.333333v341.333334a85.333333 85.333333 0 0 0 85.333333 85.333333h597.333334a85.333333 85.333333 0 0 0 85.333333-85.333333V469.333333a85.333333 85.333333 0 0 0-85.333333-85.333333z m-448-64c0-82.346667 66.986667-149.333333 149.333333-149.333333s149.333333 66.986667 149.333333 149.333333v64H362.666667v-64z m469.333333 490.666667c0 11.754667-9.578667 21.333333-21.333333 21.333333H213.333333c-11.754667 0-21.333333-9.578667-21.333333-21.333333V469.333333c0-11.754667 9.578667-21.333333 21.333333-21.333333h597.333334c11.754667 0 21.333333 9.578667 21.333333 21.333333v341.333334z" fill="#000000" p-id="624"></path><path d="M512 533.333333a106.666667 106.666667 0 1 0 0.021333 213.354667A106.666667 106.666667 0 0 0 512 533.333333z m0 149.333334c-23.530667 0-42.666667-19.136-42.666667-42.666667s19.136-42.666667 42.666667-42.666667 42.666667 19.136 42.666667 42.666667-19.136 42.666667-42.666667 42.666667z" fill="#000000" p-id="625"></path></svg>